<svg id="Layer_1" data-name="Layer 1" xmlns="http://www.w3.org/2000/svg" viewBox="0 0 500 500"><defs><style>.cls-1{fill:none;}.cls-1,.cls-2{stroke:#000;stroke-linecap:round;stroke-miterlimit:10;stroke-width:5px;}.cls-2{fill:#fff;}</style></defs><title>Work Experience Icons</title><line class="cls-1" x1="180.13" y1="163.65" x2="321.59" y2="305.04"/><line class="cls-1" x1="168.11" y1="175.67" x2="309.57" y2="317.06"/><path class="cls-1" d="M308.85,316.37a12.5,12.5,0,1,0,21.31,9.29,12.49,12.49,0,1,0-9.29-21.31"/><path class="cls-1" d="M180.15,163.63a12.5,12.5,0,1,0-21.31-9.29,12.49,12.49,0,1,0,9.29,21.31"/><line class="cls-1" x1="180.15" y1="304.37" x2="321.54" y2="162.91"/><line class="cls-1" x1="192.17" y1="316.39" x2="333.56" y2="174.93"/><path class="cls-1" d="M332.87,175.65a12.5,12.5,0,1,0,9.29-21.31,12.49,12.49,0,1,0-21.31,9.29"/><path class="cls-1" d="M180.13,304.35a12.5,12.5,0,1,0-9.29,21.31,12.49,12.49,0,1,0,21.31-9.29"/><path class="cls-2" d="M324.5,235.5a75,75,0,1,0-75,75v10h75v-75h-.68A76.68,76.68,0,0,0,324.5,235.5Z"/><circle class="cls-1" cx="249.5" cy="241.5" r="20"/><line class="cls-1" x1="303.5" y1="284.5" x2="303.5" y2="319.5"/><line class="cls-1" x1="273.5" y1="299.5" x2="273.5" y2="319.5"/><circle class="cls-2" cx="320.5" cy="241.5" r="20"/><path class="cls-1" d="M229.5,241.5V144.81s-31.52,7-27.76,24.81a196.19,196.19,0,0,0,8.76,30.17"/></svg>