<svg id="Layer_1" data-name="Layer 1" xmlns="http://www.w3.org/2000/svg" viewBox="0 0 500 500"><defs><style>.cls-1{fill:none;}.cls-1,.cls-2{stroke:#000;stroke-linecap:round;stroke-miterlimit:10;stroke-width:5px;}.cls-2{fill:#fff;}</style></defs><title>Work Experience Icons</title><line class="cls-1" x1="185.15" y1="305.37" x2="243.5" y2="246.5"/><line class="cls-1" x1="197.17" y1="317.39" x2="255.5" y2="259.5"/><path class="cls-1" d="M185.13,305.35a12.5,12.5,0,1,0-9.29,21.31,12.49,12.49,0,1,0,21.31-9.29"/><line class="cls-2" x1="185.13" y1="164.65" x2="326.59" y2="306.04"/><line class="cls-2" x1="173.11" y1="176.67" x2="314.57" y2="318.06"/><path class="cls-2" d="M313.85,317.37a12.5,12.5,0,1,0,21.31,9.29,12.49,12.49,0,1,0-9.29-21.31"/><path class="cls-2" d="M185.15,164.63a12.5,12.5,0,1,0-21.31-9.29,12.49,12.49,0,1,0,9.29,21.31"/></svg>